<?xml version="1.0" standalone="no"?>
<!DOCTYPE svg PUBLIC "-//W3C//DTD SVG 20010904//EN"
 "http://www.w3.org/TR/2001/REC-SVG-20010904/DTD/svg10.dtd">

<svg version="1.0" xmlns="http://www.w3.org/2000/svg"
 width="1000.000000pt" height="1000.000000pt" viewBox="0 0 1000.000000 1000.000000"
 preserveAspectRatio="xMidYMid meet">

<g class="line" transform="translate(0.000000,1000.000000) scale(0.100000,-0.100000)" fill="#dddddd" stroke="none">
<path d="M4640 9731 c-47 -19 -216 -34 -361 -32 -107 2 -308 -40 -383 -80 -47
-24 -79 -33 -147 -39 -58 -6 -102 -16 -135 -33 -58 -29 -172 -71 -233 -87 -24
-6 -60 -22 -81 -35 -20 -13 -58 -30 -85 -40 -88 -29 -472 -233 -578 -305 -317
-217 -530 -378 -662 -499 -22 -20 -96 -86 -165 -147 -133 -119 -238 -225 -335
-339 -33 -38 -62 -72 -65 -75 -61 -60 -187 -235 -267 -370 -27 -47 -83 -139
-123 -205 -41 -66 -88 -156 -105 -200 -18 -44 -40 -96 -50 -115 -10 -19 -28
-78 -40 -130 -13 -52 -34 -129 -48 -170 -29 -85 -53 -243 -102 -680 -27 -240
-15 -977 20 -1210 3 -19 12 -114 20 -210 15 -187 29 -265 70 -400 14 -47 30
-130 36 -185 5 -55 14 -129 20 -165 13 -88 94 -330 136 -407 18 -34 43 -88 54
-120 39 -103 190 -363 287 -493 91 -122 422 -454 608 -610 46 -38 216 -160
223 -160 4 0 34 -21 67 -46 32 -26 91 -62 131 -80 114 -52 200 -111 211 -143
8 -23 3 -58 -24 -168 -43 -175 -61 -362 -74 -778 -6 -176 -14 -369 -19 -430
-5 -60 -12 -208 -16 -327 l-7 -218 114 0 115 0 6 122 c4 66 7 223 8 347 0 124
6 372 14 551 12 287 17 337 39 425 14 55 35 161 47 235 12 74 32 175 45 223
31 115 30 143 -5 199 -32 50 -60 69 -131 86 -60 15 -240 94 -293 129 -23 15
-54 34 -70 42 -15 8 -75 53 -134 100 -59 47 -143 112 -187 145 -280 203 -552
498 -720 780 -74 124 -94 177 -102 268 -6 75 -54 256 -103 388 -35 92 -41 123
-91 430 -55 347 -65 526 -64 1170 1 625 12 792 64 953 16 51 38 138 49 195 12
57 32 131 45 165 14 34 38 100 54 147 43 124 124 290 187 383 71 106 198 279
255 348 25 29 56 67 70 84 76 91 319 332 456 453 198 173 543 429 664 492 14
7 95 60 181 117 86 56 161 103 166 103 5 0 57 25 117 55 59 30 113 55 120 55
8 0 54 18 103 40 49 22 123 47 163 55 135 28 235 56 270 76 19 10 78 30 130
43 52 13 121 34 152 45 51 19 80 21 245 21 164 0 195 -3 241 -20 65 -25 112
-25 182 -1 42 14 98 20 239 25 l184 6 80 -36 c69 -32 102 -39 230 -55 82 -10
185 -28 229 -39 44 -11 155 -36 247 -55 91 -19 202 -48 246 -65 44 -16 107
-35 140 -42 33 -6 92 -24 130 -40 39 -16 106 -42 150 -57 115 -40 536 -259
700 -364 77 -49 183 -127 235 -172 52 -45 140 -119 195 -165 135 -112 463
-437 533 -529 102 -133 169 -227 228 -325 96 -156 172 -289 179 -316 4 -14 22
-52 40 -85 33 -61 141 -367 170 -485 9 -36 29 -101 44 -145 16 -44 39 -128 50
-187 12 -59 38 -154 57 -210 37 -111 44 -158 69 -503 8 -115 20 -264 26 -330
15 -152 5 -410 -22 -570 -10 -66 -22 -133 -24 -150 -3 -16 -19 -59 -36 -95
-17 -36 -46 -105 -64 -155 -35 -95 -116 -292 -158 -386 -14 -32 -33 -83 -43
-115 -23 -81 -120 -276 -174 -351 -25 -33 -70 -98 -100 -142 -60 -89 -81 -118
-190 -266 -150 -204 -469 -519 -583 -577 -34 -17 -80 -43 -102 -57 -22 -15
-51 -32 -65 -38 -14 -6 -61 -28 -105 -48 -44 -21 -123 -55 -175 -75 -236 -93
-346 -155 -377 -212 -39 -72 -16 -266 47 -390 17 -32 45 -109 64 -171 42 -136
137 -401 158 -442 9 -16 30 -72 47 -124 17 -52 40 -110 52 -130 12 -20 28 -58
36 -86 8 -27 35 -99 60 -159 24 -60 53 -150 64 -200 11 -50 31 -127 45 -171
13 -45 25 -100 26 -123 l1 -42 159 0 158 0 0 35 c0 19 -17 81 -39 137 -21 57
-46 139 -55 183 -9 43 -33 115 -52 160 -20 44 -47 113 -59 154 -13 40 -40 110
-59 155 -19 44 -51 135 -70 202 -19 67 -54 172 -77 235 -23 63 -63 175 -89
249 -26 74 -64 164 -83 200 -25 45 -37 78 -37 107 0 36 5 46 42 77 23 20 46
36 51 36 16 0 128 52 190 88 31 18 79 40 105 47 47 14 152 72 287 156 227 143
301 205 431 359 39 47 98 117 130 155 68 80 283 357 332 427 33 48 134 232
177 325 55 118 76 160 99 197 14 22 27 56 31 75 3 20 23 72 45 116 120 247
234 589 251 747 5 57 17 148 26 203 9 55 18 174 20 265 4 142 1 178 -17 259
-14 65 -24 157 -30 301 -6 115 -18 254 -29 316 -56 313 -94 498 -120 574 -16
47 -36 123 -45 169 -10 49 -33 115 -55 160 -21 42 -42 92 -46 111 -4 19 -24
67 -46 106 -21 40 -52 105 -68 145 -16 41 -74 164 -129 274 -102 204 -101 202
-322 483 -85 108 -191 230 -266 307 -172 177 -560 499 -746 620 -57 38 -122
81 -144 96 -67 46 -236 144 -274 158 -19 8 -73 32 -119 53 -46 22 -116 52
-155 68 -39 16 -102 41 -141 58 -38 16 -88 32 -110 36 -22 4 -71 22 -110 41
-38 19 -110 46 -160 60 -49 15 -135 42 -190 60 -55 19 -145 41 -200 49 -55 8
-149 29 -210 46 -118 33 -321 53 -520 51 -164 -2 -394 19 -448 40 -59 24 -118
23 -177 0z"/>
<path d="M1988 6963 c-8 -10 -18 -27 -23 -38 -10 -27 -24 -206 -34 -445 -5
-107 -15 -227 -22 -266 -12 -70 -12 -72 15 -128 35 -72 81 -100 124 -75 14 8
40 34 56 57 29 40 31 49 38 180 18 331 7 606 -27 672 -29 57 -96 79 -127 43z"/>
<path d="M4831 6757 c-59 -29 -71 -100 -101 -584 -15 -251 6 -346 85 -379 82
-34 103 -13 138 137 42 186 46 211 53 351 6 130 5 136 -30 270 -38 150 -56
192 -85 208 -25 13 -30 12 -60 -3z"/>
<path d="M3750 5779 c-47 -5 -245 -15 -440 -23 -299 -13 -367 -19 -429 -36
-41 -12 -117 -27 -169 -35 -52 -8 -105 -21 -118 -30 -23 -15 -24 -17 -18 -138
7 -143 23 -186 124 -322 32 -44 76 -105 96 -135 90 -135 244 -327 311 -390 41
-38 99 -81 129 -96 50 -24 59 -26 95 -15 70 21 184 124 269 244 43 59 88 129
101 155 13 26 36 66 51 89 15 22 45 74 66 115 22 40 63 118 92 173 29 55 58
107 66 115 27 31 75 149 81 198 5 41 2 56 -16 80 -41 58 -104 69 -291 51z m32
-210 c15 -18 16 -24 4 -52 -7 -18 -29 -55 -47 -84 -19 -28 -54 -88 -79 -132
-106 -192 -234 -391 -287 -448 -24 -25 -64 -30 -106 -14 -39 15 -159 161 -267
325 -55 83 -127 190 -161 238 -69 100 -74 133 -26 156 24 11 43 12 111 2 64
-10 104 -10 182 -1 54 7 209 16 343 21 134 5 246 12 250 15 11 12 66 -5 83
-26z"/>
</g>
</svg>
